<svg preserveAspectRatio="none" overflow="visible" style="display: block;" width="93" height="98" viewBox="0 0 93 98" fill="none" xmlns="http://www.w3.org/2000/svg">
<g id="Vector">
<path d="M39.2415 34.0369C25.6543 50.3483 28.9632 70.8691 32.316 79.0906C32.316 76.4597 32.484 70.3758 32.6457 68.896C33.1487 64.2919 34.9542 59.3591 42.0447 50.3154C47.717 43.0805 50.8939 37.2159 51.7734 35.1879C51.6085 37.3803 49.4319 44.1658 42.0447 53.7685C34.6574 63.3711 34.2397 68.6219 34.9542 70.047C34.9832 66.594 38.7504 62.2455 42.8723 57.8792C45.4233 55.177 47.8191 53.1107 48.9734 52.1242C53.2227 48.4921 58.9334 44.7248 61.5053 35.8456C63.9819 27.2953 58.9188 7.83781 55.7308 0C56.0606 2.13758 56.2256 13.6477 39.2415 34.0369Z" fill="#50C898"/>
<path d="M30.5374 76.6242L7.25532 16.1141H0V14.4698H28.6915V16.1141H20.4468L31.1983 44.3899C31.1983 44.3899 29.0504 46.8694 27.8939 56.1264C26.7373 65.3835 30.5374 76.6242 30.5374 76.6242Z" fill="#015591"/>
<path d="M93 97.0119V98H67.9935V97.0119H74.5319V70.827H52.766V97.0119H59.4948V98H34.2979V97.0119H40.8404V62.3188C40.8404 62.3188 43.4536 58.9545 45.8404 56.7282C50.1277 52.7292 52.766 51.1376 52.766 51.1376V69.3449H74.5319V44.0686H67.9935V43.0805H93V44.0686H86.4043V97.0119H93Z" fill="#015591"/>
</g>
</svg>
